/* XPM */
static char *b4ea6abce4274644d45b03d9090d0c4569hg6sjqIW1IMcHI[] = {
/* columns rows colors chars-per-pixel */
"64 64 243 2 ",
"   c #040603",
".  c #0A0603",
"X  c #060906",
"o  c #0A0A06",
"O  c #05060A",
"+  c #06090A",
"@  c #0B0C0A",
"#  c #09050F",
"$  c #130E0B",
"%  c #130E07",
"&  c #0E110D",
"*  c #15120C",
"=  c #1A140D",
"-  c #18150A",
";  c #0B0D11",
":  c #060D16",
">  c #0B1216",
",  c #131412",
"<  c #1A1512",
"1  c #1D1A13",
"2  c #1C1C1A",
"3  c #161819",
"4  c #100F13",
"5  c #221E1B",
"6  c #241B18",
"7  c #231D0E",
"8  c #23211C",
"9  c #2B241C",
"0  c #2B271A",
"q  c #35251C",
"w  c #3B3017",
"e  c #1D1E24",
"r  c #0D1723",
"t  c #231E20",
"y  c #1D2123",
"u  c #252424",
"i  c #2B2523",
"p  c #2C2A2B",
"a  c #2B2827",
"s  c #322A24",
"d  c #3C2C24",
"f  c #332D2C",
"g  c #382A27",
"h  c #36322C",
"j  c #3C332C",
"k  c #3C3326",
"l  c #343333",
"z  c #3C3533",
"x  c #3D3A35",
"c  c #3A353A",
"v  c #3D3C3B",
"b  c #302F32",
"n  c #1D201D",
"m  c #402E26",
"M  c #43332B",
"N  c #453A2E",
"B  c #4A3C2A",
"V  c #423633",
"C  c #433B35",
"Z  c #4A3B33",
"A  c #443C3B",
"S  c #4A3E3A",
"D  c #4A3632",
"F  c #513D36",
"G  c #49422A",
"H  c #4C4234",
"J  c #45423C",
"K  c #4C423C",
"L  c #4E4838",
"P  c #54433C",
"I  c #5A453E",
"U  c #56483A",
"Y  c #5A4D30",
"T  c #675A3E",
"R  c #3D3B40",
"E  c #2C3241",
"W  c #443D42",
"Q  c #38454C",
"!  c #444142",
"~  c #4C4543",
"^  c #4C4944",
"/  c #4D4B4A",
"(  c #4A454A",
")  c #534543",
"_  c #534B43",
"`  c #5C4B43",
"'  c #544C4B",
"]  c #5B4C4B",
"[  c #5A4741",
"{  c #56514D",
"}  c #5B524C",
"|  c #5B5146",
" . c #554D53",
".. c #5C5552",
"X. c #5D5954",
"o. c #5A5659",
"O. c #4D4F56",
"+. c #614E49",
"@. c #63534B",
"#. c #69574C",
"$. c #6A5A4D",
"%. c #645748",
"&. c #635553",
"*. c #635B54",
"=. c #6C5B54",
"-. c #645C5B",
";. c #6C5D5B",
":. c #665657",
">. c #715E5B",
",. c #755D55",
"<. c #66615C",
"1. c #6B625C",
"2. c #6E6559",
"3. c #74635C",
"4. c #7A655C",
"5. c #75695C",
"6. c #7B6A5D",
"7. c #766356",
"8. c #6C6546",
"9. c #665D62",
"0. c #735F61",
"q. c #666263",
"w. c #6C6462",
"e. c #6D6969",
"r. c #746462",
"t. c #796565",
"y. c #746A64",
"u. c #7C6C64",
"i. c #746B6A",
"p. c #7B6D6B",
"a. c #7E7265",
"s. c #7C726C",
"d. c #75706D",
"f. c #776E73",
"g. c #7C7272",
"h. c #7B7578",
"j. c #5D6168",
"k. c #816D64",
"l. c #826E6B",
"z. c #896E69",
"x. c #837265",
"c. c #83736C",
"v. c #89766C",
"b. c #8B7A6D",
"n. c #85796D",
"m. c #856E71",
"M. c #837573",
"N. c #897474",
"B. c #857973",
"V. c #8B7B73",
"C. c #847B7A",
"Z. c #8C7C7B",
"A. c #8A777A",
"S. c #917D74",
"D. c #927E7B",
"F. c #967B7E",
"G. c #806D5F",
"H. c #8D817C",
"J. c #8D8176",
"K. c #948274",
"L. c #94837C",
"P. c #99857A",
"I. c #9C8B7D",
"U. c #94897E",
"Y. c #A08E7F",
"T. c #8B7D82",
"R. c #947D81",
"E. c #8C8383",
"W. c #8D8689",
"Q. c #948483",
"!. c #9A8483",
"~. c #9C8B84",
"^. c #9B878A",
"/. c #948C8B",
"(. c #9C8B8B",
"). c #938986",
"_. c #9C928D",
"`. c #9A8D92",
"'. c #9C9293",
"]. c #9A9395",
"[. c #A18D85",
"{. c #A28D8D",
"}. c #A18783",
"|. c #A49284",
" X c #A4928C",
".X c #AA958C",
"XX c #AD9B8D",
"oX c #A89587",
"OX c #A48F91",
"+X c #A49393",
"@X c #AA9594",
"#X c #AC9A94",
"$X c #A59599",
"%X c #AB9699",
"&X c #A59B9C",
"*X c #AC9B9C",
"=X c #A49995",
"-X c #B19E92",
";X c #B19C9D",
":X c #B19B8E",
">X c #B4A295",
",X c #B5A49A",
"<X c #BAA69C",
"1X c #BCAA9D",
"2X c #B8A597",
"3X c #ACA49E",
"4X c #AE9DA2",
"5X c #B29EA2",
"6X c #ADA3A2",
"7X c #B3A4A4",
"8X c #B8A4A4",
"9X c #BCACA5",
"0X c #BBA6A9",
"qX c #B5ABAA",
"wX c #BBABAC",
"eX c #B5A8A7",
"rX c #BCB1AD",
"tX c #BBB0A8",
"yX c #BCB2B2",
"uX c #BDAEB1",
"iX c #C2AEA4",
"pX c #C1ACAD",
"aX c #C3B1A5",
"sX c #C5B3AB",
"dX c #CAB8AD",
"fX c #C9B6AA",
"gX c #C4AEB3",
"hX c #C8AFB5",
"jX c #C3B4B4",
"kX c #CCBCB3",
"lX c #CBBCBB",
"zX c #C6B7B9",
"xX c #D0BBB2",
"cX c #CBC2BC",
"vX c #D3C3BA",
"bX c #CFBCC2",
"nX c #CDC4C2",
"mX c #D4CCC7",
"MX c #DBD3CC",
"NX c #D5D0CC",
"BX c #DED7D2",
"VX c #E2DCD7",
"CX c #E5E2DD",
/* pixels */
"X                                               X   X   X   X X X X   . O .     X X X X X X X X   X X   X   X   X X X X X X X X ",
"                                        X                 X X         O         X X                 X       X       X           ",
"                                        X O X             O X X   X X X o .     X X X 3 o         X     X   X       X   X       ",
"                                          X O             O X X X + # X o @ @ . X X X - o X X   X     X X     X X     X         ",
"o o X o @ X X X + @ X @ o X     X X X   X X O O       O O # ; # @ + # X o + X o @ X X X X @ @ X   X     X       X     X         ",
"$ @ $ 4 , & & X X & & X   X X X O X X X   O # # O O O # ; X ; ; > X # ; # # # : + & X X X X X X X   X X X   X     X X X         ",
"$ $ @ @ @ @ @ & @ X & n & X @ X @ @ @ @ & @ t e 4 > 4 : 3 3 3 4 > X # @ ; # & @ + & X o X o X X X X X o X X   X     X . O       ",
"O   o o + X X X @ & & 3 5 5 2 u p c v c x c W W W ( ( W W c t 3 3 > ; & # > > ; & X @ @ @ @ + @ o X X @ X X o X X X   X X     X ",
"@ & @ o @ @ @ , * 3 2 a z ' ] 9.f.m.T.T.A.T.T.T.T.T.`.`.R.h.0.D a t t t t b e r > e ; ; o X # @ @ @ X X & @ o o X @ o X o X X o ",
"@ ; @ ; , , < 5 f ~ ;.f.A.R.$X5X4X;X5X;X%X;X%X5X0XuXzXbXbX5XR.m.' S c ~ 9.h.9.o.W c p 3 @ # X @ @ X & & @ @ X o o X o o o o # @ ",
", * < < < 5 l ' w.i.W.&X7XwXhXbXbXbXhXhX0X5X5XpXgXgXbXuXuX0X%Xz.:.+.W =.m.`./.W.f.9. .W f u , X X o & + @ X o o o o @ $ @ @ @ @ ",
"2 5 5 t z ] ;.y.g.Q.Q.(.^.^.$X5XgXhXhXgXgX0X0XpXgXuX0X0X0X4X%XF.t.:.+.0.T.$X%X5X4X^.T.T.g.-.( l e @ @ X @ & o o o . o o o o o @ ",
"5 i A ] -.p.p.B.J.U._.|.^.P.P.[.oX@X:X<X0X0XgXhXgXhXbXgX8X%XR.:XR.m.:.>.{.%X$X%X4X%XOX(.^.T.f.o.v u 3 & @ @ . . . o 0 0 - . o o ",
"h ~ :.M.Z.A.!.!.L.~.|.I.K.S.K.P.L.}..X@X%X5X5X0X0XuXgX5X%X.X.X%X%X}.l.0.}.OX@X;X*XOX+X X+X^.T.f.w.W a 2 3 $ $ * % o - 7 % % $ % ",
"W ] 0.M.D.Q.L.P.[. X~.Q.~.Q.~.~.{.*X;X%XOX5X5X4X5XhXgX%XR.R.R.R.F.,.,.>.R.OXF.z.^.R.R.Q.Q.Q.A.p.e.o.p u 5 * , 6 = % * o % $ $ % ",
"&.r.M.Z.P.U.Z.).(.L.H.H.H.)._.=X4X0XhXzXhX0X0XR.4X0XbXgX%XR.@X;X%Xm.+.:.A.OXOXA.m.F.v.z.k.t.r.1.-.{ R a 3 * * < 5 9 8 5 = $ . . ",
";.>.M.L.~.V.{.L.3.&.] ]  .-.w.p.g.h.E.+XeXlXbXgX%X$X0X5XT.m.R.%X5X^.t.t.OXOX`.`.^.D.N.A.M.r.w.w.-.9.o.v 3 , @ @ % & % & X . . o ",
"#.,.u.P.P.u.;.[ ) _ ' :.&.&.<.i.1.w.p.c.A.(.8XlXzX5X%X5Xm.t.m.N.N.0.+.p.^.`.7XqX*X+X(./.A.m.p.i.w.-.o.o.h 2 * @       . X . o o ",
"+.$.7.3.3.U D H M B ` ~ p e b / ^ %.| @.3.l.R.$X5X*X$X@Xt.:.m.m.A.m.] A.4X4X6X].W.C.p.r.1.1.*.*.w.q.9.o.x 2 , , , X X X X . o o ",
"I +.$.,.` Z B B Y T G @ O : > : 2 L T Y B =.>.p.(.!.N.t.:.m.>.>.N.p.] -./.`.].W.].E.g.1.} } _ ~ A ' ..' l @ X & & & @ X X . . $ ",
"U U ` #.=.` d G T T 7   > : Q j.X 0 %.T U #.U ) ] ;.&.W &.l.,.,.=.&.W [ n.h.q.o.( e t A | H N S W C W &.z $ o X @ & @ o . o @ @ ",
"U I ` @.| ` B w B Y G - : : > & - G $.%.H 7.*.S *.g.@.[ +.F +.+.[ F D k k X.b : E e # $ Y 8.Y j f z z +.W ,   X @ @ @ @ $ o . @ ",
"I U I P K H Z H C k G C 9 < 8 s U _ S M C 1.Z.).Q.&.M M m d d m m M M s 0 | p r O.b #   G 8.%.Z 6 z V W z 3 X . . o $ * * o @ $ ",
"P F K K _ ) S x C _ { _ _ _ *.*.*.K ;.M.M.s.1._ k d d 9 q q d d q d d q 0 u v p > * 6 B 8.T U 5 i g A W h ,     o o = 6 * $ * < ",
"g s 6 g V S C W P C Z K | _ X.*...) ' K M M D M M m q q d m M M M m m d s 9 i x L H J L G k 9 s x x J / J 1   $ < 3 1 5 < - * , ",
"V j g D N d d k M M M j M N N M H P F P +.+.+.D d q q d m B M D D D M m d s i 9 h _ L J L _ / ' ^ J L L x 3 O o = - * * 1 - % = ",
"j V ) P S F Z H U U ` ` @.#.2.4.u.4.3.#.#.F Z m m q m +.+.F m D m m m M k q i j z x ^ { / { J x x x x x b n @ % o $ % % % - - = ",
"C V S Z Z Z H U ` %.@.@.@.+.&.#.@.@.@.=.$.#.U m m M F +.I D q m I m m B B N N x h x x ! / } { ! J J x l a , @ * - = = 1 - - = = ",
"x K ) _ S S Z G G P U I P K ) I ` @.,.,.+.P D M F +.I F F m q D +.I I I +.@.| U J x / { ! ~ ^ / / ^ v l p > & & % - - = 7 = - = ",
"x x M C D B d N H P @.` | =.=.@.` @.@.I F D I +.F I I D m D I #.,.7.G.6.7.7.$.=.%._ _ -.-.{ ' ' ( ! l p u r & & % % - % - - - = ",
"k C S P I P N N U $.3.2.@.#.3.4.$.` S m m Z F F F F +.W G.oXS.G.6.4.u.k.6.5.6.u.y.@.C } e.X./ ! J ! ! v c u 3 , * * $ < = $ % = ",
"C C C M V Z P I %.#.<.$.@.P U K P I P Z B D F [ ,.+.I 4.F.S.F.G.I S.P.~. XP.J.I.V.2.<.<.<.<./ / -.o.O.O.R n < < 2 3 < = = = = % ",
"~ z f C C S C G Z k N Z S N S _ ` I &.,.$.@.@.[ :.+.@.v.z.,.,.z.,.I W +.{.-X X.XL.c.N.u.X.1.<.q.e.j./ R R y 3 > , 3 - = * , < < ",
"_ z i 9 f x C L L K K H Z I @.#.| @.,.>.,.=.=.;.#.,.4.,.G.G.G.,.z.k.>.D ,. XD.N.,.;.=.=.%.2.e.<.w.o.O.c e 3 , & & & o @ $ = $ $ ",
"h 9 8 2 u h l x K | | } #.#.@.@.@.@.>.r.p.p.l.k.4.:.k.z.S.z.z.G.,.,.=.+.@.V.D.,.#.,.#.@.' } w.e.q.e.q.( 3 ; @ , , & - , < $ = < ",
"h 9 8 8 p ! / ^ { ..&.=.1.4.u.r.t.:.#.>.t.>.t.k.l.z.v.z.R.z.m.z.,.>.>.>.;.v.!.t.+.0.;.=.=.} X.<.e.e.e.e.l 4 * * - , , 1 < = = 7 ",
"L f z x ( o.X.q.q.<.3.3.3.u.c.l.p.,.;.;.t.l.c.U.N.k.c.N.m.m.m.z.N.N.l.M.N.{.;X^.;.N.P.4.3.;.*.<.d.e.i.e.O.u , , , $ * * = = = 7 ",
"S C z ! { { / / { q.1.r.u.b.c.p.l.l.p.l.D.V.c.Z.!.V.D..X8X;XOXOX}.+X+X+X;XhXgX@X~.Q.;XD.3.r.p.i.w.J.e.j.{ l l 5 < , = < < = = 6 ",
"V K ) / X.X.X.X.*.1.1.a.P.^.!.M.N.Z.M.Z.V.V.S.~.[.~.~.P.5XjXjXgX5X%X;X8XpXwX8X5X@X+XeX@X~.A.p.M.h.E.h.h.j.l l u < * $ $ $ $ $ = ",
"~ ~ ^ X.e.q.X.2.<.w.y.M.C.M.D.Q.~.!.L.D.L.~.P.S.[..X@X*X5X0XwXgXgXpXpXhX0X7X0X8X0XpXpX;X+X(.).E.H.h.d.f.^ p a f i t 5 t 5 = $ 6 ",
"..` ~ / <.<.X.X.X.2.d.B.B.H.L.+X@X~.L.L.U.V.S.[.oX[.-X7X;X*X5X5X0XgX0XpXpX0X5X0X8XgX7X;X+X=X=X).T.f.h.f.W p i p a i i 8 1 2 6 6 ",
"' ..1.X.{ <.X.{ 1.2.s.g.C.M.Z.Z.H.B.J.L.V.s.V.L.N.V.F.F.!.D.^.(.OXOX!.!.^.{.!.Q.Q.Q./.(.(.^.E.W.h.h.h.9.c c f t < < < < , < < = ",
"2.X.e.w.{ { <.<.q.<.<.-.<.-.r.w.1.2.1.<.X.%.w.1.*.*.1.y.p.y.r.p.A.D.A.N.p.l.t.g.9.t.r.r.h.E.h.h.W.T.e.o.c a a u 5 6 < $ $ $ $ - ",
"s.y.-.1.X.^ | | *.%.*.} _ &.&.} @.} X.%.*.<.3.r.i.p.V.H.D.~.Z.M.T.=X%X(.D.Z.M.Z.A.p.;.w.9.9.e.9.f.h.9. .W W h s s a a s i 6 $ = ",
"s.s.w.2.X.} K L ] } *.} 1.y.y.s.u.5.b.J.n.L.~.~. X+X$X!.(. X*X+X*XeX7X$Xg.(.^.Z.(.^.A.i.w.:.q.e.j.o.O.W ! ^ J x h s s 9 6 1 - = ",
"y.2.u.d.y.*.....} -.3.1.u.x.x.4.$.$.b.b.b.b.K._.~.@X@X X+X+X,X*X7X7XeX*X4X$X(.+X%X$XQ.p.i.e.e.C.j.O.W W ! x v J x h f a < - - - ",
"d.y.y.a.s.C.s.-...r.y.,.3.u.a.5.5.x.v.z.b.b.S.S.D.D.!.{.+X#X#X*X*X*X,X#X#X+X$X+X(._.Q.g.g.i.f.g...' ( ( ^ / ^ K K x h h i 1 = $ ",
"s.a.g.n.y.r.s.g.w.1.r.;.y.a.B.v.x.x.k.k.v.v.x.p.S.t.M.{.c.N.{.@X{.~.~.~. X~.L.Z.V.Z.Z.M.g.C.C.9./ ( '  ./ { _ U _ J N j g i 6 * ",
"a.d.J.U.J.a.g.J.H.H.s.B.B.d.i.x.u.6.c.x.c.3.t.k.N.S.!.!.{.P.^.^.P.!.P.S.I.L.V.Z.S.V.c.h.C.h.e.X.'  .&.-.-.&...^ U _ _ J k j 0 2 ",
"5.6.a.a.a.J.U.U.J.H.).).).s.B.i.] 3.p.v.u.u.3.3.k.V.V.V.K.[.XX X#X XI.P.I.V.b.L.L.B.M.g.w.-.-.<.&.9.w.9.-.} { U _ _ K J j g 0 1 ",
"8.x.a.5.5.6.x.n.n.g.B.n.M.i.y.y.c.Z.c.u.u.a.c.c.V.L.V.a.N.[.P.oXXXXXP.|.D.n.B.J./.C.s.p.X...w.w.w.e.r.-.-.w.*.X.X.{ _ ^ A C j g ",
"x.x.6.6.6.6.x.k.5.2.5.5.2.$.*.3.| 3.B.c.V.V.c.a.L.H.v.u.V.V.6.c.k.I.oXU.b.U.U.B.M.i.-.&.-.w.w.i.i.r.r.9.p.i.r.w.<.<.<.X.' ) J S ",
"x.G.6.6.6.6.8.8.%.$.8.$.%.#.7.7.8.4.u.s.n.b.n.x.I.J.5.7.5.a.7.8.4.5.K.J.n.a.5.<.1.r.p.p.i.s.g.B.g.g.h.M.i.g.d.i.d.e.q.{ o.] V z ",
"K.K.K.K.K.x.x.b.G.G.4.G.6.4.6.G.a.6.7.7.6.6.a.G.K.b.b.v.v.b.6.6.x.a.u.2.5.2.2.u.s.C.H.W.).H.).).).Q.H.M.C.Z.g.p.g.p.-.9.-.' W D ",
"XXY.Y.Y.Y.Y.Y.Y.oX:XoXY.K.K.P.P.P.K.K.b.K.K.S.v.K.b.K.K.v.x.x.a.a.a.x.u.5.a.B.H.~.(.!._.=X_._._.'.$X(.C.C.E.A.C.E.h.i.w.9.:.&.] ",
":XXX:X:X:XXX:X2X2X2X2X1X-X-X2X2X:XXX:XoXXXoXI.Y.I.P.K.K.K.I.Y.I.K.b.b.b.v.u.V.P.!.#X;X%X3X=X=X_.$X3X&X_.Z.W.Z.M.H.E.f.g.p.9.-.] ",
"XXXX:XXX:X2XiXaXaXiXiXiXaXfXxXfX1XaX2X:X>X>XoX.XXX_.|.Y.oXoXI.|.|.I.|.|.|.~.P.~.{.;X<X#X*X,X3X6X6XeX&X=X].].].W.E.W.E.h.d.e.q.-.",
"XXXXXXXXXX2X1XaXfXfXfXfXxXxXxXaXiXiX1X1X<XaX1X>X>X1X2XXXXX2XXX.X#X>X#X.XXX#XXX[. X#X;X@X#X*X3X6XeXqX6X4X6X&X6X&X]./.W.E.H.d.w.X.",
"XX:XXXoXXX:X-X2XiXfXfXvXvXvXxXaXaXaXaXaXfXvXfXdXcXvXdX1XaXfXaX1X<X1X>X-X>X:XXX[.~.XX,X3X*X,X6X6XeX6X7X7X6X4X&X&X4X/.W.W.C.h.d.<.",
"XX2X2X2X2X2X1X1X1XaXaXaXxXfXvXvXcXsXdXdXkXvXkX9XaX1X1X>X>X2X<X2X,X,X-X*X#XXX-X-XoXP.,X,X#X7XeX6XeX6X4X4X4X].].&X4X].]./.W.h.d.e.",
">X,X-X-X1XaXsXtXtXtXkXkXvXvXvXvXvXmXMXMXmXMXmXcXvXcX1XaX1X2X2X2X8XiX9X,X-X<X,X-X,X=X,XeXeXqXqXyXqXeX7X6X6X&X6X&X3X&X3X].].W.h.d.",
"3X3X6X3X3XqXtXtXtXqXrXcXmXBXMXNXMXMXMXBXMXMXMXMXvXvXcXcXsXtXtXtX9XpX9X9X8X9X8X0XrXzXzXyXjXjXyXjXyXyXrXwXyXyX6X6X3X].].]././.C.d.",
"qX6XqXqXqXqX6XqXrXyXyXcXvXNXBXVXCXCXVXMXVXCXBXBXNXnXdXrXjXrXrXsXrXrXrXyXuXrXzXkXlXnXnXnXlXyXyXyXyXyXyXyXyXyXqX6XqX6X]././.E.C.d.",
"&X3X6XqXyXyXqXrXyXrXzXmXmXmXMXBXVXCXMXmXVXVXBXBXNXcXyXyXyXzXyXyXrXqXyXjXjXzXlXcXbXlXjXyXyXyXyXyXyXqXyXyXqXyXyXyXyXqX3X&X]./.h.d."
};
