/* XPM */
static char *b9dfa828299f45c8fd7a16a2aefb982eiy2HIJwcy4aebjSI[] = {
/* columns rows colors chars-per-pixel */
"64 64 245 2 ",
"   c #1C170E",
".  c #1F1B15",
"X  c #20190F",
"o  c #221B14",
"O  c #251D19",
"+  c #281F1A",
"@  c #26211C",
"#  c #2B241E",
"$  c #31291F",
"%  c #272320",
"&  c #2B2622",
"*  c #2D2A25",
"=  c #2E2D29",
"-  c #312B24",
";  c #342B26",
":  c #332E2B",
">  c #2F302A",
",  c #333125",
"<  c #393127",
"1  c #34312C",
"2  c #3A352D",
"3  c #3C392D",
"4  c #312F30",
"5  c #353434",
"6  c #3A3531",
"7  c #3D3A34",
"8  c #373738",
"9  c #3C3B3A",
"0  c #41261F",
"q  c #42322A",
"w  c #423C34",
"e  c #423E3A",
"r  c #483F38",
"t  c #444135",
"y  c #494136",
"u  c #45423C",
"i  c #4B443C",
"p  c #4C493D",
"a  c #51483C",
"s  c #3D3B47",
"d  c #413F44",
"f  c #454441",
"g  c #4A4642",
"h  c #474945",
"j  c #4D4A44",
"k  c #4C4C4A",
"l  c #524740",
"z  c #534C43",
"x  c #524E4A",
"c  c #4C514D",
"v  c #5B5146",
"b  c #54524D",
"n  c #5A544C",
"m  c #4B4C53",
"M  c #555553",
"N  c #5A5651",
"B  c #565857",
"V  c #5C5A55",
"C  c #5C5C5B",
"Z  c #65554B",
"A  c #625C54",
"S  c #695B54",
"D  c #615E5A",
"F  c #5E605E",
"G  c #63625D",
"H  c #6A6358",
"J  c #6B645C",
"K  c #75695B",
"L  c #7E715F",
"P  c #5F6060",
"I  c #646562",
"U  c #686662",
"Y  c #6C6A64",
"T  c #6C6C6A",
"R  c #736D64",
"E  c #786C67",
"W  c #767367",
"Q  c #73726D",
"!  c #7B746C",
"~  c #757472",
"^  c #7A7672",
"/  c #7C7A73",
"(  c #7E7D79",
")  c #83745E",
"_  c #87795F",
"`  c #836D66",
"'  c #847463",
"]  c #8C7B64",
"[  c #877469",
"{  c #8B7B6B",
"}  c #917C65",
"|  c #947B6A",
" . c #847D73",
".. c #887C76",
"X. c #947D74",
"o. c #AC7E7E",
"O. c #7F807B",
"+. c #95836B",
"@. c #9B866B",
"#. c #9A856D",
"$. c #84827C",
"%. c #8A8479",
"&. c #8B847B",
"*. c #938374",
"=. c #9E8B73",
"-. c #95867A",
";. c #9B8C7C",
":. c #9C9078",
">. c #A28D75",
",. c #A48778",
"<. c #AB9476",
"1. c #A4927C",
"2. c #A99578",
"3. c #AB957B",
"4. c #B19C7F",
"5. c #AC7E80",
"6. c #8A8984",
"7. c #948C83",
"8. c #9C8D83",
"9. c #9C8888",
"0. c #969387",
"q. c #9C9284",
"w. c #9E948B",
"e. c #9C9895",
"r. c #A98B85",
"t. c #B48889",
"y. c #A39483",
"u. c #AC9582",
"i. c #AC9B84",
"p. c #A59788",
"a. c #A49A8C",
"s. c #AB9D8B",
"d. c #B59988",
"f. c #B39D8B",
"g. c #BA8C94",
"h. c #A89795",
"j. c #A59D93",
"k. c #AB9D94",
"l. c #BA9696",
"z. c #AEA18D",
"x. c #B5A287",
"c. c #B3A28D",
"v. c #ADA394",
"b. c #A7A59C",
"n. c #ACA49A",
"m. c #B2A494",
"M. c #BBA696",
"N. c #B5A996",
"B. c #B3A69A",
"V. c #B5AB9C",
"C. c #BBAC9C",
"Z. c #BCB19E",
"A. c #BD9AA0",
"S. c #ADABA3",
"D. c #ABAAA6",
"F. c #B8A6A5",
"G. c #B5ACA2",
"H. c #BBAEA1",
"J. c #BBB2A3",
"K. c #B5B3AC",
"L. c #B9B5A8",
"P. c #BAB5AC",
"I. c #BCBBB6",
"U. c #C18E95",
"Y. c #C4969B",
"T. c #C2AA99",
"R. c #C2B49D",
"E. c #C4BA9F",
"W. c #C79BA3",
"Q. c #D09EA9",
"!. c #C5A7A9",
"~. c #C3B4A4",
"^. c #C5B9A5",
"/. c #C7B8A7",
"(. c #C4BAAC",
"). c #CABCAD",
"_. c #C6ADB1",
"`. c #D2A9B0",
"'. c #CAB6B7",
"]. c #C4BCB2",
"[. c #CABDB2",
"{. c #D7B6BA",
"}. c #BFC0BC",
"|. c #C9C0A7",
" X c #CBC2AC",
".X c #D5C6AA",
"XX c #D3C5AC",
"oX c #DBC9AE",
"OX c #CCC2B3",
"+X c #C4C3BD",
"@X c #CAC7B9",
"#X c #CCC4BA",
"$X c #D2C5B4",
"%X c #D3CAB4",
"&X c #DACBB3",
"*X c #D5C9BA",
"=X c #D4CBBC",
"-X c #DAD1BA",
";X c #DDD2BD",
":X c #E0CCB3",
">X c #E2D2B9",
",X c #D3BBC2",
"<X c #E0BBC3",
"1X c #C7C7C2",
"2X c #CBCBC4",
"3X c #CCCCCA",
"4X c #D4CDC2",
"5X c #D7CDC5",
"6X c #CFD1CB",
"7X c #D5D1C3",
"8X c #DBD2C5",
"9X c #DED9C5",
"0X c #D3D2CC",
"qX c #DCD5CA",
"wX c #DDDACD",
"eX c #CFD2D0",
"rX c #D4D5D2",
"tX c #D8D7D5",
"yX c #DCDBD4",
"uX c #DCDDDB",
"iX c #E2D8C6",
"pX c #E1DBCD",
"aX c #E7CAD3",
"sX c #E0D7D2",
"dX c #E1DDD3",
"fX c #E2DED9",
"gX c #DEE0DC",
"hX c #E3E1D5",
"jX c #E4E3DC",
"kX c #E9E5DD",
"lX c #ECE8DF",
"zX c #DDDFE2",
"xX c #E9DBE0",
"cX c #DFE4E1",
"vX c #E4E4E2",
"bX c #E6E7E7",
"nX c #E6E9E4",
"mX c #EAEAE5",
"MX c #ECEDEA",
"NX c #EDEEEC",
"BX c #EEF1ED",
"VX c #F1F2EE",
"CX c #EFF2F1",
"ZX c #F2F4F2",
"AX c #F4F8F5",
/* pixels */
"# # # # @ # # $ $ , 3 7 t u t 6 1 - - : : : ; : : 1 * * * * * & & * % & = * % & # & @ @ @ % # O O O + - $ $ $ + o o @ o         ",
"# - ; & # * $ $ $ 3 3 9 t u ; = 5 1 : ; ; ; = : : = = = = * = * * & * = & & % & # * & & @ @ # @ # ; < q < - $ < O o . o o o X O ",
"* $ ; - , * , , 3 t t t i r 3 2 7 7 1 1 = = = = : : 1 , : : : : = * * = * * * * * * & @ @ * 2 < q w w w y t w 7 O o . o o o @ < ",
"* - - , , , , 3 3 3 t p f i w 7 7 t < 1 4 : 5 : 1 1 1 : 5 : : : : > > > = * = = * * = ; < w w w y y a y w 2 * @ @ @ . @ & + o o ",
", , , , , 3 3 7 7 t y a i r r w w i 2 1 1 1 1 1 5 1 6 : 1 6 1 1 1 1 1 1 > > > > ; 2 3 w y a a a a y q ; # @ % % @ @ ; , O o   o ",
"1 < 1 1 , , t t t u i p l g r e u z 7 7 3 7 7 7 6 6 6 6 6 6 6 1 6 6 1 1 5 1 1 w w i p a a v y q < ; & ; = : * @ * < * # @ O o o ",
"2 3 3 < 3 7 7 p a p i g l p e w g b e 7 7 w 7 9 7 6 7 3 7 6 6 6 6 6 2 7 w y i a a z z a i i : : - ; ; : - = * 7 w * @ @ @ @ @ O ",
"2 2 6 7 t t t t p b p p i w u r g n u e w 9 e e e e e e 7 e e w 7 7 e y l a z z z z r < w w : 5 1 1 1 : ; 1 u 7 = * $ # # @ @ @ ",
"2 7 6 w 7 u u g j v n h e u t g j V p u u e u f f u u u e t t e t a z z v b p u e u 7 1 j w 6 7 1 5 1 : g g 5 & * * = & * $ # & ",
"w w 7 t z n b g u j z b g u i z H G b u u f u i i u g i f f e f h j z z p p t u e p e 7 k 7 7 7 7 7 w h w 1 e g e = * # # & & # ",
"e e 6 Y n.S.K.j./ z e j n z i g H J n j h j j h h g h h h h p p j j p p p h u p u j e h x e u 9 7 f j u Y h.S.a.0./ 7 = : : ; ; ",
"i r w ! S.j.~.[.$XL.! z l N n j H W H i j b b b x x j b j j z j j j j x j h h h g x u N j u u u j x Y b.OX_.n.p.&.! e 2 : * & # ",
"A Z v H v.~.~./.(.(.(.n./ N S H J W R n b b M M N N b N b c b c b c c j c j j z x V j V j j u c I w.OXL.v.N.B.p.-.n ; * * = = * ",
"K K K K ;.C.J.(.~.~.C.~./.s.R J W K R J n A A V V V V V V F V V V N V M N V b c N V n F b h V -.L.).C.C.~.C.s.{ ' t 1 1 : > , * ",
"L K L L { s.k.T./.).^./.R.Z.N.%./ %.Y R Y K R Y Y I I G G F F F C F I G V Y O.W W J T U n W v.|.E.Z./.~.Z.R.1.' R 3 2 2 2 1 , 1 ",
") L ) ) ` y.i.C.).(././.R.N.N.a.;.&. .R %.%.7.j.v.$.$.b.e.6.%.O.b.b.I.K.0.v.%X XV.a.a.{ q.|.|.R.E./.R.N.v.s.*.' v 2 3 w 7 2 < , ",
") _ _ _ _ } 3.c.C.~././.~.H.B.p.q.8.y.q.y.m.J.OXOX@X7XdXwXyXgX6XBXnXBXmXhXwXwX-X%XXX|.Z..XE.E.Z.~.~.C.v.z.;.{ L w w 3 3 2 2 2 < ",
"_ _ _ _ +._ 1.i.M.~./.~.~.C.f.s.p.s.s.c.R.|..X=X9XhXhXpXhXgXrXgXnXBXBXnXjXnXgX-X%XXX.XXXXXXXE.|.J.~.C.z.y.=.*.H q t t 3 3 3 2 3 ",
"+._ _ _ ] ] +.c.M./.~.~.~.~.C.M.M.R.E..X.X.X.X-XpXhXgXlXkXjXjXnXCXAXCXnXnXnXgX-X X%X-X-X%XXXXX|.|.L.V.N.q.*.*.a p p p 3 3 3 3 3 ",
"+.+.+.+.+.+.+.u.T.C.C.R.~.J.~./.E./..X&X&XoX.X=XhXlXnXMXMXmXBXVXCXZXBXjXgXgXgX6X@X-X9X-X%X%X%X X|.|.J.C.p.*.H i a a y t 3 2 3 3 ",
"+.+.+.+.+.+.+.*.m.M.C.H./.)./..XoX.X.XoX&X.X%X7XhXmXvXnXMXMXMXCXZXCXcXtXrXrXrXrX6X9X9X-X@X%X.X XOX X+XC.v.%.v p p p p t q 7 w w ",
"} @.+.@.+.+.@.#.1.J.C.J.$X.X.XoXoXoXoX.X&X-X=X9XfXfXjXnXMXNXMXNXBXnXgXrX6X6X6X@X6X6X6X@X X X|.|.XX@X XV.v.W p j h p u t t t w 7 ",
"} } +.+.+.+.+.+.| m.).$X&X&X:X:X&XoXoXoX&X-X-XqXwXdXkXnXMXmXNXMXnXgXrX6X@X2X}.}.2X@X@X@X X X|. X X%X XZ.j.Y x b h h 9 t i p y y ",
"@.=.@.=.:.:.1.1.1.~.;X;X;X>X>X>XoX.XE.Z.^./.OX=XpXhXnXmXBXMXNXbXcXgXrX2X6X@X}.}.}.S.b.a.0.a.v.V.E.L.|.L.J.%.n F b h p j z z y y ",
"=.=.=.@.>.:.=.@.1.J.>X;X>X:XoXE.i.@.;.;.*.%.&.v.@XjXMXBXVXNXVXmXnXgXtX6X6X6X+Xb.6.~ T T T R K -.z.z.Z./.K.! b C j b j u h f s s ",
"@.@.=.>.=.>.=.=.1.Z.iX>X>X>X-X&XR.-.7.7./ W !  .j.fXBXVXVXZXVXbXcXgXuXuXtX0X+X6.~ ~ T T ( 6.D.2X2XOX(.(.L.w.H H b b h g b m m m ",
"} @.@.=.>.+.:.1.i. X;X9XiXiXiXpXkXwX+XP.S.S.K.+XV.8XVXVXZXVXVXvXnXcXcXuXuXtX2XD.}.}.I.1X3XuXnXgXtXeX6X6X XL.&.Y C c k k C G I P ",
"<.@.@.@.2.*.=.1.C.-X9XiXiXhXhXkXlXBXBXZXAXVXAXAXmXVXVXVXZXZXNXNXnXcXvXcXuXgXuXvXcXCXCXCXCXnXnXcXgXeX6X@XP.S.n.T g g f 9 9 9 9 9 ",
"<.>.<.>.<.@.:.c.-XpXqXqXsXkXmXMXMXBXVXBXBXZXZXAXAXVXNXNXNXNXbXvXvXzXzXrXrXtXzXvXCXCXCXbXnXcXcXgXrX6X@X}.V.b.b.6.k h h c c c c k ",
"<.<.<.<.>.@.y.J.pXpXwXwXdXkXnXmXMXMXBXZXAXZXAXAXAXBXmXvXfXfXfXuXtXaX0XeX1XeXcXcXbXbXzXbXcXgXgX6X2X}.}.G.n.p.a.7.P P C B m k d f ",
"<.<.<.<.<.2.1.Z.iXpXpXwXdXfXgXjXnXmXMXBXBXZXZXAXZXZXMXjXsX5X'.'.'.'.P._.I.I.tXzXcXbXcXcXcXuXeX+XI.K.L.V.j.w.a.6.D B c m k k j h ",
"<.<.<.<.<.2.y.N.5XpXqXqXqXqXyXyXuXnXMXMXBXCXCXCXZXMXnXsX5X{.!.B.l.h.h.h.e.D.tXbXzXzXzXcXuXeX6X@X}.K.V.V.n.s.a.7.! / ( O.( ( ( ( ",
"<.3.<.2.>.1.1.z.=XqXqX5X5X=X@X+X0XjXnXmXMXNXMXMXNXNXvXwXD.6.r.9.r.9.*.` ! S.0XrXuXuXuXuXtXeX1XG.j.w.w.y.y.;.;.%.Z Z S r v v Z A ",
"<.3.3.1.:.3.z.z.(.qX8X8X4X=X[.[.=XfXmXmXMXNXbXNXMXNXvXxX,X5.` 5.[ ..E ! n.+X[.1X3X3X3X3X3XeX3XP.n.h.p.a.w.-.$.H Z Z Z Z S K J E ",
"x.x.x.c.x.c.i.i.m.=X8X4X4X[.L.G.L.5XvXvXvXvXvXzXuXuXuX0X1XB.[ [ ` E ` j.].].I.P.I.}.1X3XeX3X3XK.a.b.n.H.B.n.w...Q Y E J S A Z v ",
"4.4.3.i.=.#.2.1.y.J.5X=X4XOX~.H.J.4XkXvXjXfXjXuXtXtXqX1XG.F.w.[ E ` h.(.].P.K.K.I.'.I.K.D.S.n.j.p.8.q.q.7.&.P V T Q ! Y T ` ~ E ",
"4.<.4.2.) ] i.f.f.V.*X4X*X=X~.~.(.#X4X0X5X0X6X0X4X5X[.I.D.h.w...T O.F.D.n.n.n.b.b.n.n.V.G.n.w.w.h.k.N.V.m.6.V M x k x j x A A D ",
"<.3.4.i.u.x.i.s.s.m.OXqX8X5XOX[.[.].#X5XqXqX5X,XK.P.F.k.h.6.7...W 5.h.e.w.e.e.w.w.h.n.n.v.V.a.-.*.*.;.p.v.9.%.( Y A M x j d g j ",
"x.x.x.4.1.1.y.w.0.a.+XdXpX8X[./.~.).[.[.[.(.P.H.F.m.n.k.r.5...~ D E 5.6.7.7.....%.&.-.p.p.;.v.s.;.1.:.-.-.S b J ~ ..~ J N x j e ",
"+.) K W  . .!  .&.7.G.sXfXsX4X[.[.[.).[.(.~.C.l.p.9.X.[ ` ` E E E ^ ` E E E J S W { *.8.v.n.9.p.N.a.y.s.q.A u e e d C ~ ^ E D v ",
"z G W T Y ! $.%./ 6.K.uXjXfXdX5X5X*X*X[.[.(.T.d.r.,.[ [ 5.r.r.9.9.h.h.h.r.9. .K ` ' *.;.8.s.B.y.y.C.C.s.q.E b e e 7 5 7 g D ! ! ",
"W Y G W $.O.Y O.6.b.K.uXjXfXdXwX8X8X$X*X{.)./.d.d.,.,.g.!._.F.F.F.F._._.B.!.h.` ` { | -.-.;.p.M.k.q.m.J.w.V V N e 5 7 7 5 : 1 k ",
"F W O.W F T &.e.6.6.D.uXjXfXfXsXpX>X$X[.)./.R.T.d.i.3.T.,X_.!._.F.'.,X_._.'.W.X.{ X.X.*.*.X.8.p.m.k.w.k.w.$.V u N k 7 e w 7 6 : ",
"~ Y n G $.0.O.Q I ( S.uXnXjXtXpX8X5X$X[.)././.T.T.d.g.Q.{.Q.!._.'.'.'.'.{.{.!.X.X.*.{ { { { *.p.p.V.v.w.*.H / T e k c 9 5 6 6 6 ",
"b M / 6.O.R F F I 6.+XvXvXfXdXdXqX*X[.).T.T.M.T.T.T.d.`.`.A.W.W._.'.,X,X,X,X!.r.*.{ ' ' | | X.y.s.p.M.h.-.J p C ^ d 5 l e 1 6 1 ",
"U O.O.Q F V F T 6.6.eXvXjXfXfXsXqX5X=X[.~.T.M.f.d.T.T.`.Q.W.A.l.!._.,X,XaX<XW.t.| ` ' ` | [ *.1.y.y.p.M.p.E p 7 d ~ M 4 g g q 6 ",
"O.Q G V V C W / T e.fXmXbXfXwXwXqX5X-X$X)./.C.f.d.i.l.W.Q.W.U.W.A.A.'.,XxX<XY.t.[ ) ) ) ] } #.;.1.y.1.s.V.&.e e e 8 Y D ; e h e ",
"^ M b V M Q Q Y ( D.jXmXmXhXpX8X8X5X5X=X X)./.Z.d.i.i.g.Q.W.U.U.g.A.'.,XaX`.U.X.] ' ' ] ] | #.1.1.2.u.s.V.h.x e e 8 5 P P : 6 d ",
"I V b M ~ U C ( ^ b.nXMXmXkXwX8X5X8X8X-X=X$X$X).~.T.f.Y.Y.Y.U.t.t.g.!.Y.`.Q.t.| ] } ] +.+.#.>.1.i.s.c.N.B.n.V 9 7 8 8 : V I ; q ",
"M F b W U D / U T D.mXmXmXmXhXpXiX8X8X8X8X4X5X=X$X~.T.d.d.l.U.t.5.g.Y.U.U.t.X.| } } +.#.=.=.>.y.p.z.N.V.B.L.W 7 9 5 8 5 : B J 0 ",
"b M Q I C ^ U B T 3XMXNXMXMXmXhXpXpXpXqX8XqX5X5X=XOXE.M.d.t.,.o.5.t.t.t.<.,.| | } +.#.#.=.1.1.3.s.M.N.Z.C.G.6.u 5 5 8 7 5 ; N Z ",
"b T I V ~ I D I ~ }.nXNXVXVXmXmXjXpXpXpXsXiXqXqX5X=X).M.f.d.3.,.o.,.,.,.,.| | #.+.=.=.=.>.:.3.s.c.N.C.C.G.V.-.b 6 5 5 5 5 5 = P ",
"Y I M T I V P I / 2XMXMXMXMXMXmXlXhXhXpXwXqXqX8X5X=XOX~.m.f.4.,.@.>.@.#.#.#.#.#.=.>.1.1.1.2.a.z.N.V.V.H.C.B.7.A 6 6 5 4 5 5 5 : ",
"T c T I V I P T $.5XVXMXMXMXVXVXmXjXhXhXwXqX8X7X5X=XOX(.C.c.u.1.<.,.#.#.#.#.#.#.>.=.1.1.y.p.z.v.M.V.H.V.H.H.7.G 7 5 5 1 4 4 1 4 ",
"B I T I P I I T 6.rXMXmXmXmXlXlXmXmXkXjXdXpXwX8X5X=X X].~.v.s.4.1.>.,.=.#.#.#.=.=.1.y.i.p.s.z.v.B.H.V.~.H.H.0.Y 9 6 5 5 4 : 4 1 ",
"C I C C C C I T o.3XvXvXmXmXlXMXmXkXkXkXhXhXdXwX5X=XOX X/.N.N.s.3.<.=.=.#.#.#.=.1.y.i.s.s.a.v.N.V.H.H.H.J.G.&.D 7 5 5 5 4 4 4 4 ",
"I B B P C C P P T }.gXcXjXjXlXnXlXnXmXlXkXhXpXwX7X=X@X[.~.V.C.c.i.3.1.>.@.@.@.>.1.1.i.a.z.v.v.B.C.G.G.C.C.n.$.V 7 5 8 5 5 4 4 > ",
"F B B C B C P T T D.uXgXkXjXjXkXkXkXkXkXhXgX0XqX7X4XOXOX(.Z.Z.N.f.s.3.1.>.>.,.1.:.1.1.a.z.m.N.V.V.Z.J.J.C.B.%.H 9 8 8 8 5 4 4 4 ",
"B B C B F C P P T 6.eXcXjXjXhXyXhXhXpXgXyXyX9X9X7X4X@XOX(.(.(.J.N.N.i.u.<.>.@.>.:.:.1.a.j.v.N.V.V.J.J.C.V.V.$.n 9 8 5 8 8 5 4 4 ",
"B B B C C P P P P ~ K.cXjXjXhXpXdXhXpXdX9XqX0X7X4X=X@X@XOX@X@X(.~.C.c.f.3.,.=.>.=.:.i.z.v.N.V.G.J.J.J.J.V.b.J j 9 9 8 8 8 4 4 5 ",
"B B B B C P P P I Q b.uXjXhXhXpXhXgXwXpXwXwX8X7X5X7X7X7X2X=X7X@XOXP.V.c.u.3.>.=.=.:.1.z.v.V.V.L.L.J.C.L.Z.0.H b 9 8 8 8 5 5 5 4 ",
"m B B B B C C P T T 6.0XkXfXhXhXpXdXpXhXyXwXqX8XqXqX8XqXqXqX0X@XOX|./.C.c.i.1.>.:.:.1.z.v.V.Z.L.Z.V.V.V.v.%.N b d 8 8 5 5 5 5 5 ",
"B B B B B C P P I I Q K.gXpXhXpXdXhXhXjXhXdXhXdXhXdXwXyXdXhXwX0X@X@X XJ.M.s.1.1.1.:.2.i.v.N.V.Z.J.J.C.N.p.%.M f 9 8 8 8 8 4 5 5 ",
"c c B B B B C P P I T 6.2XpXgXhXhXkXlXlXjXkXkXhXhXhXhXdXhXhXgX7X7X6X@X(.Z.m.i.p.1.:.1.i.v.N.V.V.C.J.V.j.p.%.p f d 8 8 8 8 8 5 4 "
};
