/* XPM */
static char *_10f16cdfe5545c7efc74ce0628b77bf9KfLmCAQu3xcM8BT[] = {
/* columns rows colors chars-per-pixel */
"64 64 237 2 ",
"   c #050201",
".  c #0A0603",
"X  c #070803",
"o  c #0B0904",
"O  c #0C0B0B",
"+  c #130B03",
"@  c #130D0A",
"#  c #18130C",
"$  c #0F1011",
"%  c #171515",
"&  c #1B191B",
"*  c #281A0D",
"=  c #271D14",
"-  c #231D1A",
";  c #301F15",
":  c #24211C",
">  c #2C2419",
",  c #352616",
"<  c #312817",
"1  c #35291B",
"2  c #3B2A1C",
"3  c #1E1D22",
"4  c #201F21",
"5  c #272626",
"6  c #2D2C2A",
"7  c #322A22",
"8  c #352E28",
"9  c #3C342A",
"0  c #2E2D31",
"q  c #2F3435",
"w  c #343433",
"e  c #393735",
"r  c #3C3C3B",
"t  c #412F22",
"y  c #443425",
"u  c #45342A",
"i  c #483828",
"p  c #4B3B2D",
"a  c #433C33",
"s  c #4D3D31",
"d  c #413E3A",
"f  c #523F32",
"g  c #4C402E",
"h  c #54422D",
"j  c #4D4233",
"k  c #44423E",
"l  c #4C443A",
"z  c #4C453B",
"x  c #534334",
"c  c #594634",
"v  c #5A4936",
"b  c #54453A",
"n  c #584738",
"m  c #544A3C",
"M  c #5B4B3C",
"N  c #614A34",
"B  c #634D3A",
"V  c #63513E",
"C  c #3C3D41",
"Z  c #3D4142",
"A  c #434344",
"S  c #4B4A45",
"D  c #45454B",
"F  c #48474A",
"G  c #474848",
"H  c #4B4B4B",
"J  c #524741",
"K  c #554D43",
"L  c #5D4E41",
"P  c #514D4A",
"I  c #4E504F",
"U  c #5D5143",
"Y  c #54524C",
"T  c #5C554B",
"R  c #474952",
"E  c #4C4D52",
"W  c #514F53",
"Q  c #4E5052",
"!  c #535353",
"~  c #5B5654",
"^  c #565855",
"/  c #595A56",
"(  c #55565A",
")  c #58585A",
"_  c #5B5C5C",
"`  c #635444",
"'  c #6A5644",
"]  c #665946",
"[  c #6A5946",
"{  c #65564A",
"}  c #655A4A",
"|  c #6C5B4C",
" . c #735B46",
".. c #725E4C",
"X. c #635B57",
"o. c #6D5E51",
"O. c #625D5C",
"+. c #705E50",
"@. c #5F625D",
"#. c #74614D",
"$. c #7B654E",
"%. c #656156",
"&. c #6D6154",
"*. c #63625D",
"=. c #6C635D",
"-. c #736353",
";. c #7A6654",
":. c #7C6955",
">. c #74655A",
",. c #77685B",
"<. c #7B6B5C",
"1. c #575A61",
"2. c #5C5E63",
"3. c #635F62",
"4. c #5F6064",
"5. c #5E6168",
"6. c #626264",
"7. c #6B6563",
"8. c #65656A",
"9. c #6B6B68",
"0. c #766B67",
"q. c #7D6E61",
"w. c #6E706E",
"e. c #7E7164",
"r. c #7B736B",
"t. c #7A7774",
"y. c #826B55",
"u. c #826E5C",
"i. c #85725E",
"p. c #89735E",
"a. c #816F61",
"s. c #847464",
"d. c #897664",
"f. c #8A7A66",
"g. c #84756A",
"h. c #897769",
"j. c #86796B",
"k. c #8C7B6C",
"l. c #907B66",
"z. c #917D6B",
"x. c #847A74",
"c. c #8D7E71",
"v. c #917F73",
"b. c #7F8D7C",
"n. c #8F8069",
"m. c #93836E",
"M. c #8E8172",
"N. c #8C837C",
"B. c #948474",
"V. c #9A8774",
"C. c #9A8B76",
"Z. c #93847B",
"A. c #96897A",
"S. c #9C8C7B",
"D. c #9E907D",
"F. c #A28C77",
"G. c #A28E7B",
"H. c #A2937D",
"J. c #A8917F",
"K. c #8C8A85",
"L. c #9A8E85",
"P. c #9B9287",
"I. c #9B9893",
"U. c #A49483",
"Y. c #A69687",
"T. c #A79884",
"R. c #A99986",
"E. c #A59A8C",
"W. c #AC9C8B",
"Q. c #B29D88",
"!. c #A49C96",
"~. c #98B09A",
"^. c #AFA08B",
"/. c #B3A38E",
"(. c #ACA195",
"). c #A6A49C",
"_. c #ADA49A",
"`. c #B2A493",
"'. c #BCAA94",
"]. c #B3A59A",
"[. c #B5A99D",
"{. c #B8AA98",
"}. c #ADABAC",
"|. c #B6ADA3",
" X c #BDB2A5",
".X c #B8B4A9",
"XX c #C3AF9A",
"oX c #C6B8A6",
"OX c #C1B6AB",
"+X c #C5BDB2",
"@X c #CDC0AE",
"#X c #CCC2B6",
"$X c #C6C2BB",
"%X c #CCC5BB",
"&X c #D2C8BB",
"*X c #CAC7C2",
"=X c #D4CDC4",
"-X c #D6D2CC",
";X c #DBD6CB",
":X c #DCD6CA",
">X c #DDDBD3",
",X c #D8D9D6",
"<X c #E3D9CA",
"1X c #E3DBCD",
"2X c #E3DED4",
"3X c #E3DFD9",
"4X c #E4E1D6",
"5X c #EAE3D6",
"6X c #E6E3DA",
"7X c #E9E5DB",
"8X c #E7E9DE",
"9X c #ECE9DE",
"0X c #F3EBDF",
"qX c #E5E5E1",
"wX c #EAE6E1",
"eX c #EDEBE4",
"rX c #E7EDE9",
"tX c #EEEFEA",
"yX c #F5EBE1",
"uX c #F1ECE4",
"iX c #F1EFEA",
"pX c #EFF0EA",
"aX c #EEF0EB",
"sX c #F4F0E6",
"dX c #FAF3E7",
"fX c #F2F0EB",
"gX c #F1F0EC",
"hX c #F2F1ED",
"jX c #F1F2ED",
"kX c #F5F3EE",
"lX c #F9F4EC",
"zX c #F1EFF1",
"xX c #EEF4F2",
"cX c #F2F2F0",
"vX c #F4F4F1",
"bX c #F9F5F1",
"nX c #FDFCF7",
/* pixels */
"2X2X2X4X5X6X6X7X3X3XyXeXeXuXwXuXuXuXuXtXuXtXtXzXqXqXzXcXgXgXgXgXgXfXgXjXsXgXgXkXsXiXgXcXaX,XtXgXaXaXtXaXaXaXiXaXtXtXaXtXtXaXaXtX",
"2X2X2X2X3X6X7X7X3X5XwXeXeXuXeXuXtXuXuXuXiXtXtXiXqXqXfXgXgXgXgXgXgXfXsXgXkXgXlXuXgXiXgXcXaX,XtXaXaXgXaXgXaXfXaXaXgXtXtXtXaXaXtXtX",
">X2X4X4X6X6X6X9X3X7XyXuXwXuXeXuXeXuXtXeXtXtXiXzXqXqXcXcXgXgXkXaXgXgXgXgXgXgXiXiXgXfXgXkXiX,XtXfXgXaXaXtXtXaXaXaXaXtXaXtXtXaXaXtX",
"4X2X2X4X6X6X6X9X6X5XwXuXuXiXeXtXeXpXeXpXuXtXtXzXqXqXgXcXaXaXkXaXgXgXgXgXgXgXgXgXkXgXgXgXtX,XgXaXtXaXaXgXaXaXgXgXaXtXtXtXtXaXaXtX",
"4X2X4X6X6X6X6XwX3X3XyXuXeXiXuXiXeXpXpXeXaXaXaXgX7XqXgXvXaXgXjXkXcXaXcXtXcXgXgXgXgXkXgXcXiX,XgXgXaXaXaXiXaXaXaXtXuXaXaXtXtXaXaXtX",
"2X4X4X6X6X6X7XwX3XwXeXiXuXuXeXtXrXpXpXpXaXfXaXfXqXqXaXvXjXjXaXkXcXzXcXcXcXzXcXgXcXgXgXgXiX,XvXtXaXgXaXaXtXaXaXaXaXtXtXtXtXaXaXtX",
"2X2X4X6X7X7X7XyX3X9XeXuXuXuXuXiXpXeXrXpXpXpXsXfX8X8XfXkXsXjXjXaXaXcXcXzXaXzXcXcXcXgXgXiXtX>XvXaXaXaXaXaXgXgXaXgXaXaXtXaXtXfXfXtX",
"4X4X4X6X7X7X7XwX3X7XuXuXiXeXtXiXrXpXpXpXuXpXsXsX7X7XsXlXsXsXlXjXgXiXaXcXcXcXgXcXcXcXgXiXeX>XlXgXtXgXaXiXaXaXaXtXaXtXtXtXtXaXaXaX",
"2X2X3X6X7X7X7X9X9X5XsXuXuXuXiXtXrXaXfXaXsXsX9XdX9X7X0X9XwXyXdXzXvXiXiXcXgXvXbXtXcXzXcXvXqXqXgXaXtXgXaXfXaXtXaXiXtXtXaXaXaXaXaXaX",
"4X3X5X6X6X7X7XeX9X3XuXuXbXiXlXiXaXeXeXlXsXwXdX9X:X&X&X+X+X+X=X3XuXlXlXbXcXiXvXzXcXtXcXlXqX3XkXiXaXaXaXtXgXaXaXtXaXtXtXaXiXaXaXiX",
"4X4X6X6X7X7X7XuXwX3XyXwXiXwXuXqXgXtXyXlXsX:X&XOX[.{.].!.W.].[.OX=X2XwXlXlXgXgXcXcXaXzXcXqX3XgXaXgXaXaXaXaXaXaXtXtXtXaXaXfXaXaXaX",
"2X4X6X6X6X7X9XwXyX6XuXuXkXwXuXtXtXiXuXwX:XoXU.D.A.S.G.V.Z.L.Y.Y.`.OX&X6XlXbXgXzXcXaXcXcXqX6XlXgXaXaXaXiXaXaXgXtXtXaXaXaXaXtXaXfX",
"4X4X5X6X7XwX7X9XwX3XyX3XiXuXkXbXwXuXkX-X[.Y.V.m.z.d.d.u.a.h.v.v.G.U.].+X3XiXcXcXbXzXvXvX8X6XvXiXaXaXaXgXgXaXaXtXtXtXaXiXaXaXaXaX",
"5X3X5X6X7X7X7XwXyX2X3X-X;X-X3X-X3XdX2XXXE.U.z.p.y.;.;.;.a.a.u.p.z.v.G.(.+X3XbXzXcXzXvXvX6XqXbXaXtXfXaXtXtXaXaXtXtXtXaXtXtXaXaXiX",
"4X6X6X7X7X7X7XyXyX3X3X-X-X=X-X+XwX3X+XE.U.z.y. . . . .#.y.a.u.y.p.l.z.L.!.+XuXiXaXzXcXvXqXqXvXaXgXtXtXaXgXaXaXtXaXtXaXaXaXaXaXaX",
"4X4X5X6X7X7XwX9XwX9XiXuXkXiXuXtXuX=X].E.h... .y.V B N B { y.y.y.u.p.d.k.Z.!.*XeXaXcXcXvXqX,XvXtXaXaXaXgXaXaXaXtXaXtXaXiXaXaXiXaX",
"4X7X6X6X7X7X8X0X7X8X0X0XsX8X0XdX5XoXU.S.d.' B ' N i t u { a.+.h.<.#.d.<.s.n.U.oX:X$X>XnX,XrXxXxXaXaXaXaXiXtXiXiXzXiXzXzXaXzXxXtX",
"4X4X6X6X7X7X8X0X0X4X9X9XsX0X0X0X1XR.A.m.:.;.' c i ; t f { >.3.a.+.` <.q.-.;.A.].:X:X7XnX,XrXxXaXaXaXaXaXaXiXiXzXzXiXtXzXxXrXxXtX",
"6X6X4X6X5X8X8X0X0X4X0XuXdXsXsXdX&XW.U.#.i ;.F...' f f u u J { a.s.#.#.#...] <.U.&XlXlXgX3XrXxXaXaXaXaXaXaXaXiXiXiXiXzXiXrXtXtXtX",
"4X4X7X7X8X5X8X7X8X8XuX9XdXuX8X&X{.H.<.| ..u.J.J.d.' ' f u J { a.<.&.[ | q.f.d.M. X0XlXaX4XrXvXgXaXaXaXaXzXiXtXiXiXiXiXtXzXtXxXaX",
"4X4X4X8X8X0X8X0X7X5X9XuXdX8X1X@X{.U.m.Q.Q.l.Q.F.F.v.v.+.f X.v.+.M M ] | s.C.B.s.C.&XsXlX3X8XvXiXxXaXzXaXiXtXiXgXpXiXfXpXaXaXaXaX",
"4X4X5X4X5X8X8X8X0X8X9X0XsX1X%X XT.Q.oX/.d.l.F.d.v.Y.Q.h.{ g.L.>.| &.] +.k.H.f.h.B. X5XlX3X7XiXiXfXxXtXzXiXgXtXgXiXtXpXpXaXaXaXgX",
"4X8X8X5X5X9X9X0X9X8X9XsXsX&X.X'.U.'.oXV.p.l. .' ' +.v.S.v.v.a.0.c.h.] ;.S.W.M.n.B.E.#X7X2X9XiXiXiXcXtXtXtXtXiXiXtXpXpXpXpXiXaXaX",
"4X4X5X5X8X8X8X0X9X4X9X8XsX%X).^./.oXQ.m.$.2 i B ' +.v.L.v.x.>.a.M.<.x | <.s.s.,.j.k.U.#X:XuXdXcXcXgXtXiXgXiXgXtXfXpXpXpXpXaXaXaX",
"4X4X4X8X5X8X8X9X0X5X9X0X9X1XN.^.oX'.R.F.y.h  ...v #.u.-.a.a.x.a.e.<.s x >.` f | <.d.M.E.OX<XlXlXwXtXgXaXaXfXpXpXpXpXpXpXfXtXfXaX",
"4X4X4X4X9X8X8X0X0X5X0X0XuX9X.X{.XXJ.n.p.p.V B ` c L { L =.a.g.h.q.L s s n t ; ` | >.j.A.W.OX<XbXuXfXbXgXeXpXpXfXpXpXaXaXaXfXgXfX",
"4X4X8X4X5X8X8X9X8X8X0X8XuXdX:XXX'.H.p.v f f c p 2 u b | v.v.>.+.,.` n 2 , t f v M [ ;.d.m.U.oX7XbXuXjXlXeXpXaXaXpXaXtXaXgXgXaXaX",
"4X4X8X4X5X9X9X9X9X8X0XsX9XsX:XXX^.p.#.B ` V ` { p 2 * * J a.x.a.>.L n t u i p c n ` | ;.<.k.G.%XuXuXsXfXeXfXaXaXpXaXaXfXkXgXgXaX",
"4X4X4X8X5X8X5X9X0X8X8XsXsX5X%XXX^.y.V :.F.k.+.` u t ; ; s { =.a.L M M b M t 2 p v ` B ' :.i.k.(.1XiXyXuXaXfXeXaXaXaXaXtXaXzXzXtX",
"4X4X4X8X5X8X9X9XsX8X5X9XdX1X X'.J.n.i.l.U.B.a.{ p 7 u L g.x.g.+.p L L b s 2 i y v N v ' $.y.p.Z.+XiXuXyXsXtXeXaXaXaXtXzXcXzXcXgX",
"4X4X4X4X5X8X8X9X0X9X5XsXdX:X.X'.F.n.F.F.Q.G.h.o.{ { { >.Z.Z.Z.>.f ` x p 2 t y i c c c B ..$.p.j._.7XdXwXsXtXaXaXaXaXaXaXzXzXzXaX",
"4X4X4X8X8X8X9X9X9X9X8X0X9X%X~.XXJ./.'.V.W.W.s.c.h.a.O.g.L.Z.g.J J | c y * p y p h h h B V ..y.r.L.1XdXuXgX8XkXaXaXaXaXzXzXzXzXgX",
"4X1X4X5X9XqXeXqXkX7X9XyX5X`.`.J.H.{.T.U.U.v.S.S.A.n.e.s.n.:.h m M m 1 < i p 9 m L n f B ' +.u.<.V.#XyXdXiXfXfXfXgXuXkXiXkXiXcXiX",
"1X1X1X8X9X7X6XiXwXwX3XyX&XW.`.T.D.Q.W.W.R.v.S.G.Z.M.n.n.<.[ v T b i < < g b U x L M c f N ' y.;.m.oX5XuXiXaXtXiXfXfXiXdXkXiXcXiX",
"5X5X4X4X4X8XtXwXwXiXwX7X XR.`.T.T.W.B.z.L.V.Z.L.A.M.<.| ] V M i < * * 1 s b U n ' | L n M ' y.;.d.].<XdXiXeXeXiXiXiXuXiXiXtXzXiX",
"4X1X1X4X7X7X3X3XuXwX1X#X X`.'.R./.R.d.>.<.s.s.q.e.;.} V v g i 1 > 1 9 j m n U L >.>.| ' ' +.,...u.R.=XuXiXtXtXtXiXuXkXuXiXtXcXgX",
"1X1X4X4X6X6X6XeXbXwX=XOX[.`.`.U.H.T.S.s.' L | m p u j p 2 , , i g j j m U L U | >.;.....#.#.#...:.S.#X9XfXrXgXtXiXiXiXiXiXgXgXgX",
"8X4X1X4XwXtXtX,X!.0.3._.].{.G.Y.U.Y.U.B.<.{ b ` x p p j p s x j m m j b U M U >.,.>.+.+.#.| #...;.M..X6XfXeXiXiXuXiXdXgXzXgXcXgX",
":X4X8X8X;X).x.W P W 0.OX].`.Q.Y.W.Y.S.S.L.z.| b n m x s b n b U } ] U o.&.{ o.e.q.>.-.#.} | #...-.s._.>XfXrXiXtXiXiXuXiXiXgXtXiX",
"rX>X|.b.~ P F ~ 3.~ t.|.!.R.W.W.T.S.S.Y.W.Y.c.| { U M x x ` >.,.,.+.} q.s.>.<.j.d.<.-.} V ' $.#.#.<.E.:XsXaXeXtXuXiXuXiXiXtXzXiX",
"K.@.z S @.@./ / ( ~ N.|.].`.W.Y.Y.W.`.`.`.W.R.k.s.,.&.] { >.g.-.q.&.e.e.q.,.j.Z.>.;.,.` M | #.#.] ;._.6XgXgXaXcXuXiXuXiXcXiXzXiX",
"Y / Y @./ ^ ! _ O.O.x.|.].W.Y.W.Y.T.W.W.W.W.L.U.B.f.s.s.s.d.j.e.j.e.e.n.<.j.Z.B.,.>...c M ..[ V V &.(.9XiXrXeX6XuXbXbXkXuXtXiXkX",
"@.@.@.^ ^ ( @._ _ O.x.|.(.W.`.`.W.T.W.W.W.T.J.Y.S.M.M.B.B.B.B.A.M.n.j.M.q.j.c.j.,.>.{ n ` -.[ $.` } P.wXgXgXgXkXiXuXwXeXiXcXzXiX",
"@.@.@./ / _ _ _ 3.3.0.|.].`.'.`.W.W./.R.W.T.H.H.C.B.B.n.j.c.B.j.e.e.j.A.c.B.c.s.<.,.| V | $.V V V -.E.9XwXeXcXeXiXdXiXeXwXwXiXiX",
") ^ ( @.6._ ) 8.3.3.7.|.{.`.{.T.H.^./.^.T.T.H.H.H.C.m.n.h.h.B.s.n.r.A.M.M.M.k.q.,.;.| ` ` [ V v v } !.sXbXaXqXtXwXwXuXzXbXzXtXiX",
"4.2.*.@._ 6.6.6.3.6.=.E.[././.^.^.^./.J.J.H.H.C.m.n.m.m.B.B.B.B.M.j.A.j.M.g.q.<.-.| | ` ` ' [ h c ` A.%X>XlXnXbXlXuXwXuXtXeXeXiX",
"_ 2.6.6.6.2._ 3.6.O.@.N.(.^.T.T.H.H.H.H.H.H.C.n.p.n.B.S.C.B.m.Z.n.e.n.n.k.k.,.>.o.| { ` ` ` V p V &.,.k S 9.K.$X>XbXnXzXtXtXcXiX",
"2._ _ @.6.6.8.6.7.7.T r.P.D.D.T.D.D.H.H.H.F.n.n.k.m.H.H.S.B.v.v.e.e.e.e.>.e.>.&.+.o.] ` M v g h V U <.Y P F d A Y 0.!.*XtXbXbXzX",
"2._ 6.4.6.6.6.4.@.*.*.=.N.P.0.k.l.V.V.V.U.S.C.A.C.C.P.H.v.v.z.a.i.s.n.n.e.-.-.| ] } V V V y 2 a T %.T m I ^ I *.I Z r Z @.K.}.,X",
"6.2.*.4.4.6.6.7.6.6.*.*.x.L.K.s.+.<.d.k.z.m.C.C.C.A.S.H.S.G.z.s.e.<.<.<.-.| ] } U [ m v p 9 i l T / Y z z I S Z S I ^ I I S Q Q ",
"4.4.2.5.6.5.5.8.6.6.*.*.7.N.!.S.a.` v ` q.C.S.B.D.S.H.H.G.V.d.d.i.i.<.:.-.#.} U U ] c 2 1 , u m T ^ Y S S H H H I ^ I ^ Q Q Q @.",
"6.4.4.4.4.5.5.5.8.*.7.*.6.w.L.c.h.} j i v >.&.<.S.U.Y.D.G.v.d.d.:...#.-.[ T U } } m 1 # > 2 u S z m S S S S H H H Z I I ^ ^ ^ ^ ",
"5.2.5.2.2.5.5.2.8.8.6.6.O.O.t.a.-.b s 9 ; 1 = K j.B.B.C.S.B.d.a.#.[ ..&.U M U } z 1 + + > 9 u 9 a a k S k S S H H H H H Q ! ! ~ ",
"2.3.5.2.4.2.5.2.8.3.2.6.3.3.3.r.X.z 9 8 > * + f ,.g.s.k.m.z.a.l.;.| -.-.[ M T m > + + = 7 - - 7 8 w d k S S S H H H H H ^ ) 2.~ ",
"2.2.2.2.2.2.5.2.8.2.2.6.8.3.2.~ =.7.J 7 5 = # a 0.g.,.q.s.u.u.a.;.| [ ` U m b 8 + o % > - + + - 6 e d k S I S S H I I Q ^ Y H _ ",
"2.2.2.2.2.2.2.1.2.3.2.6.6.3.O.7.P P d w 8 - * 7 =.j.q.>.| -.;.<.>.| V M n m z + + @ # # O . $ & 6 a d k Z Z Z I H G H Q ^ ^ ^ ^ ",
"8.3.2.5.5.8.1.1.1.2.2.5.5.6.2._ ! H r 6 5 % @ O 7.K.Z.q.-.,.| -.' ] ` b K z >             $ % 5 6 w d A A A F W Z Q ^ ! ^ ! ^ ^ ",
"8._ 2.9.1.) 5.5.2.1.2.2.2.2.2.O._ ( H r w 5 - + 7 x.P.x.0.` o.L ` L z m T a           O O % 3 3 6 w r C A A F F I ^ I Q / / @.( ",
"A X._ _ 8.4._ 1.1.1.2.5.5.2._ ( _ _ ( E F Z r 6 - 3.x.0.k.>.>.o.{ L K J a =         O $ $ & 3 3 6 e r C A A R W ! S ! 7.@.^ ^ ) ",
"w k I G ) 5.5._ 2.2.1.1._ _ 2.( ( ! ! E W H F F w J 7.>.7.X.J b l K T a #   o     O O $ 3 3 3 3 0 q r A A F W W 8.6.6._ / @.^ ^ ",
"!.z 9 A e Q ^ @.2.@._ ) ( _ _ ( ( ! E R R F F R C d O.=.J K J b T Y 9 & o     X O O $ $ 3 3 5 6 w q C D F E W w.t.@.q q w.K.@.@.",
">X6XK.k k r G D Q ( 4.3._ _ ( ( ( W E R R R D R R F W O.~ a a d z 7     X o O X O $ $ 3 3 5 0 q C C Z R E Q W W 4.Y 5 4 G w.@.b.",
"8X6XP # *.Y w r r H Q _ _ ^ ! Q W W W E W R R D R ( F W ~ - . + o     X o X O $ $ 3 3 5 0 C C C Z D D E E E E ! Q ^ 4.t.4.@.b.~.",
"3Xr.> 7.>X>XI.Q Z w e r H ! ^ ^ W W R R R R R D D A F J S w 8 : - - - % # $ & 4 3 0 0 C C C Z R Q E E E E E E Q Q H ! 9.@.S ~.~."
};
