/* XPM */
static char *_e534d606f724185f8ce3f6b2690492brXA8FMc9zf5mK6mB[] = {
/* columns rows colors chars-per-pixel */
"64 64 252 2 ",
"   c #2A1718",
".  c #321C1A",
"X  c #32221C",
"o  c #1C1A29",
"O  c #1D1A33",
"+  c #241D2B",
"@  c #3C1F21",
"#  c #241D34",
"$  c #29262B",
"%  c #2C232C",
"&  c #382727",
"*  c #34292C",
"=  c #282538",
"-  c #342B33",
";  c #342B36",
":  c #333132",
">  c #393438",
",  c #4A251F",
"<  c #452924",
"1  c #432C2B",
"2  c #46332E",
"3  c #57362D",
"4  c #462E31",
"5  c #4B3333",
"6  c #4D3A35",
"7  c #453639",
"8  c #4C3B3B",
"9  c #553A37",
"0  c #533D3B",
"q  c #663A2D",
"w  c #633D34",
"e  c #48443C",
"r  c #54423C",
"t  c #5C433C",
"y  c #56483F",
"u  c #63443C",
"i  c #6C443B",
"p  c #69483A",
"a  c #754B37",
"s  c #764A3B",
"d  c #1C2345",
"f  c #232546",
"g  c #383643",
"h  c #282C55",
"j  c #303254",
"k  c #373358",
"l  c #2B3867",
"z  c #333768",
"x  c #333E74",
"c  c #473A47",
"v  c #563D43",
"b  c #463A55",
"n  c #513F53",
"m  c #3F4247",
"M  c #374679",
"N  c #4B4347",
"B  c #534344",
"V  c #5B4444",
"C  c #584848",
"Z  c #5C4C4C",
"A  c #5D514A",
"S  c #4B4758",
"D  c #584A54",
"F  c #595259",
"G  c #6B4641",
"H  c #644A45",
"J  c #6C4C45",
"K  c #624948",
"L  c #6B4D4A",
"P  c #744C43",
"I  c #7A4E42",
"U  c #68544A",
"Y  c #6C534C",
"T  c #73534C",
"R  c #795748",
"E  c #644A52",
"W  c #645254",
"Q  c #6C5453",
"!  c #685759",
"~  c #6B5B5C",
"^  c #735452",
"/  c #7A5654",
"(  c #765A53",
")  c #7B5C53",
"_  c #745B5C",
"`  c #7C5D5B",
"'  c #7E624C",
"]  c #6C625D",
"[  c #77625A",
"{  c #7D625B",
"}  c #595765",
"|  c #5A566C",
" . c #675B65",
".. c #765D65",
"X. c #605E73",
"o. c #6C636A",
"O. c #786667",
"+. c #776F74",
"@. c #786A74",
"#. c #81533B",
"$. c #825546",
"%. c #845A4C",
"&. c #8B5C4C",
"*. c #905F4E",
"=. c #845D54",
"-. c #895A50",
";. c #825D59",
":. c #8B624D",
">. c #8C6354",
",. c #83645B",
"<. c #87675A",
"1. c #8A645C",
"2. c #936655",
"3. c #956A5B",
"4. c #96725D",
"5. c #A16F5F",
"6. c #866767",
"7. c #846B65",
"8. c #8B6B63",
"9. c #926C62",
"0. c #9C6D65",
"q. c #976E6A",
"w. c #887268",
"e. c #8D736C",
"r. c #947165",
"t. c #9B7264",
"y. c #94746B",
"u. c #9B746B",
"i. c #9A7A68",
"p. c #856C72",
"a. c #887676",
"s. c #977976",
"d. c #9C7C74",
"f. c #A47465",
"g. c #A67769",
"h. c #A37B6B",
"j. c #AA7B6B",
"k. c #B17E69",
"l. c #A77D75",
"z. c #9D8166",
"x. c #9B8479",
"c. c #A7826D",
"v. c #B3826D",
"b. c #BB856D",
"n. c #A48274",
"m. c #AB8374",
"M. c #A4847B",
"N. c #AA8879",
"B. c #AC8B7D",
"V. c #B38374",
"C. c #B68677",
"Z. c #B38975",
"A. c #BC8A74",
"S. c #B48C7C",
"D. c #BA8C7B",
"F. c #BA927C",
"G. c #C28C75",
"H. c #C6957C",
"J. c #D1987E",
"K. c #2C3D82",
"L. c #374A85",
"P. c #324E90",
"I. c #3859A8",
"U. c #3B5EB0",
"Y. c #435493",
"T. c #7F7E83",
"R. c #455EA5",
"E. c #4663AC",
"W. c #4D69B5",
"Q. c #4E74C3",
"!. c #5478CA",
"~. c #877985",
"^. c #927D8B",
"/. c #6C8FDE",
"(. c #998785",
"). c #938B8C",
"_. c #978892",
"`. c #A98985",
"'. c #B48D83",
"]. c #B78C84",
"[. c #AB9589",
"{. c #B39285",
"}. c #BB9484",
"|. c #B3948A",
" X c #B7998A",
".X c #BB9B8C",
"XX c #A18D96",
"oX c #A69598",
"OX c #B59996",
"+X c #BB9C93",
"@X c #B4A195",
"#X c #BAA497",
"$X c #AF9CA2",
"%X c #BCA8A9",
"&X c #B9B1B1",
"*X c #C69987",
"=X c #C29B8A",
"-X c #D29D8B",
";X c #C49D92",
":X c #CAA38C",
">X c #D3A48C",
",X c #DBA58A",
"<X c #C7A597",
"1X c #CAA494",
"2X c #D7AA94",
"3X c #CBB29C",
"4X c #DDB299",
"5X c #E1AC92",
"6X c #E4B59D",
"7X c #C7AAA5",
"8X c #D3AEA3",
"9X c #C9B6AD",
"0X c #D8B5A8",
"qX c #CFB9B3",
"wX c #E7BBA6",
"eX c #EBBEAC",
"rX c #D3C3B5",
"tX c #D9C4BA",
"yX c #EDC2A9",
"uX c #F4C8AB",
"iX c #E8C7B5",
"pX c #F8CBB7",
"aX c #FED3B9",
"sX c #AEB4E0",
"dX c #CFC7C6",
"fX c #DAD3CA",
"gX c #DAD9D8",
"hX c #DEDFDF",
"jX c #E9D7C9",
"kX c #ECDAD1",
"lX c #FCE2C9",
"zX c #E7E3DA",
"xX c #F9E8D9",
"cX c #E6E6E3",
"vX c #E8E7E3",
"bX c #E9EAE5",
"nX c #EDEDEB",
"mX c #F3EDE8",
"MX c #ECF2EB",
"NX c #F2F2EE",
"BX c #FEF5E8",
"VX c #FCF5EC",
"CX c #F2EEF1",
"ZX c #EEF8F2",
"AX c #F4F4F3",
"SX c #FAF5F2",
"DX c #F6F9F5",
"FX c #FBFAF5",
"GX c #FAF7FA",
"HX c #F6FBF9",
"JX c #FEFEFA",
"KX c #FDFDFC",
/* pixels */
"mXVXJXFXDXJXHXHXHXJXNXbXNXFXJXVXjXqX#X#XOX`.l.`.].].OX8XiXlXlXlXgXZXbXZXDXbXgXgXAXKXNXSXGXGXGXGXAXbXGXAXJXDXGXnXAXGXAXAXAXzXnXnX",
"mXJXJXFXZXMXJXHXHXJXNXNXVXFXfXXXe.e.e.y.s.`.`.`.`.`.B.`.[. X3XrXzXBXZXfXBXZXbXAXcXNXFXCXCXCXGXAXAXnXCXnXNXDXFXDXAXDXAXnXnXgXcXcX",
"JXmXSXJXDXJXKXJXDXJXJXJXfXx.] O.d.N.l.s.M.`.M.M.`.'..X=X;X<X1X;X@XrXzXxXnXJXKXHXJXJXJXDXFXAXAXAXDXDXCXDXGXJXJXJXFXDXGXAXDXAXCXKX",
"VXJXZXJXHXHXHXMXJXvX%Xx.] ( ] z.d.l.M.l.'.{.'.{.B.S.{..X;X;X2X-XF.[.@XrXzXxXNXcXcXbXMXbXGXZXZXZXAXJXGXJXKXKXGXGXGXDXFXJXKXKXKXKX",
"bXbXzXMXDXDXbXJXfX+.U ^ ' { w.<.g.l.N.S..X}.S.N.S.{..X1X:X;X-X-X:X X.XS.x.x.fXDXnXNXJXNXZXZXZXZXCXAXDXDXGXNXnXbXAXAXNXDXGXAXAXDX",
"bXzXMXhXMXDXJXzXO.8 W _ [ { w.i.g.l.C.'.F..XF.m.F.}.}.:X;X*XG.^.F.F.}..XF.[ [ fXNXnXDXJXZXZXHXHXFXGXGXAXSXDXDXDXDXFXAXDXDXNXDXAX",
"&XzXZXbXfXzXMX+.8 r U U [ w.8.z.0.u.D.}.}..X.XF.Z.F.}.1XwX*Xq.2.z.H.=X.Xn.x.U O.zXSXFXJXDXNXNXFXDXCXNXAXnXAXAXDXGXFXGXGXAXAXCXFX",
"] +.rXgXbXNXa.N 8 8 Z Q O.s.] U ,.,.B.<X1X*X=XF.S..X*X1X<X'.;.1.u.D.].+X{.y.] U (.SXJXNXFXJXmXVXDXDXAXJXnXFXAXGXAXAXKXAXbXcXgXcX",
"$X(.o.(.&X$XF 8 7 8 Z O.O.O.] A u Y { N. X1XF.=XD.}.=X;X.Xy.[ ,.,.y.x.M.[.`.O.C F dXFXNXGXmXVXVXzXAXAXAXKXGXnXMXAXDXAXMXnXnXnXCX",
"oX[.XXa.(.C Z * - B ! ~ C - c > e C U r.{.<X*X;X*X=X1X;X Xe.( Y W W O.(.[.OX~ C N _.CXCXFXFXGXmXcXbXNXDXCXMXAXAXGXAXAXAXAXAXAXNX",
"&X%X$XoXO.C B & & c ~ c $ +.F o.U 2 t O.x.|.;X].].*X3X<XM.7.U r N N B Z +.[.p.B N o.nXGXAXFXNXmXcXcXbXGXnXNXDXGXDXFXAXJXAXDXKXAX",
"^.$XdX_.8 C 8 . 1 0 C D N } F X.+.N r Y { B.;XS.].=X0X0Xx.[ U y m T.oXC A x.O.8 B D &XKXAXFXNXNXnXCXnXJXJXKXFXGXKXKXFXKXAXnXFXAX",
"_.~.oX .C C 4 & & K E  .o.% > ; 4 v V Q q.7X;X|.+X;XeXqXM.{ ( y S F F _ w.7.(.V B C (.HXAXJXFXNXMXHXCXAXAXGXnXnXJXDXNXGXAXnXJXDX",
"~.^.@.g 7 C 1 . 2 ..`...o.Z n c v E E _ ^.qX;X].;X;XqXeX;X8.( u m N & 6.e.M.8X6.y A @.GXCXHXJXAXnXAXAXHXcXAXAXbXJXGXAXJXGXNXFXCX",
"^.^.b c D e < & J {.%X`.p...! W E E / s.+X7XOX].;X|.8X0X0X`.u.*.o.C O.`.}.eXeX8XU t o.zXAXAXKXJXDXAXGXGXNXFXKXAXDXKXJXJXGXDXnXcX",
"!.^.c c N r & 5 8.OX].`.`.~.p...6.s.^.^.;XOX`.`.].l.;X;X0X.X}.^.a.^.d.|.1X2X0XeX{.H [ gXKXGXJXKXAXJXDXMXGXDXnXAXgXnXJXAXDXKXKXGX",
"6.O.5 6 t t , R `..X.X'.y.6.e.y.d.s.l.q.^.^.j.^.M.M.B.D.-X-XG.*X:Xb.v.v.H.4X4XiXpXl.P kXJXbXHXKXKXKXGXDXMXFXAXnXAXnXMXDXAXJXJXAX",
"^ V 2 r 0 9 3 y.`.;X'.d.r.M.|.|.M.6.q.u.l.l.l.j.x.l.'.].*X*Xl.C.H.>X,XA.v.2X3XwXjXeXB.qXJXNXZXHXAXJXJXJXGXKXFXAXJXGXGXHXGXJXJXAX",
"B v 1 r 0 9 { M.;X|.l.^.+X7X|.s.s.7.q.s.l.s.l.a.e.e.d.m.^.*Xj.k.F.:XyX6XH.F.F.6XpXeX0XfXFXNXDXAXAXGXGXAXDXGXJXKXJXKXKXJXJXJXGXJX",
"0 0 5 t t U x.x.7X;X1X7XqX8Xd.w.7.e.d.s.^.s.6.6.[ ` e.n.C.G.k.l.b.F.4XpXuXyX2X6XeXeX0XiXFXVXHXJXAXKXFXbXAXnXAXGXAXJXKXJXJXGXDXGX",
"! 1 r V t ( e.|.7X7X7X8X7X|.p.6.w.s.^.s.s.p..._ ~ ~ 7.d.N.'.D.Z.Z.Z.:X6XuXyXwX6XeXjX6X8XFXFXVXKXJXKXKXCXKXAXCXAXAXGXKXGXKXJXHXHX",
"Q 1 0 V 0 Y a.OX%X;XOXOXOXs.6.6.e.p.q.p.p.p.p. .~ ~ O.s.l.m.N.N.Z.c.F.J.4X>X6XwXeXlXwX;XFXFXNXJXKXKXKXKXKXKXHXGXHXKXKXKXGXKXGXKX",
"B 8 6 V 5 K `.OX7XOX;X^.^.6.p.6.p.O.....p.@.T.} F F O.s.x.y.r.3.i.Z.v.Z.:X>X6X6XeXeXeX;XkXVXAXAXKXKXKXKXKXKXKXKXKXKXKXKXKXKXKXKX",
"6 8 v C 9 L (.%X7XOX`.^.p...p...O.O.!  .T. .} S S S N o.p.e.y.i.i.B.c.v.D.G.-X5X6XeXpX<X9XSXSXAXKXKXKXKXHXKXKXKXKXKXKXKXKXKXKXKX",
"8 0 Z C 5 E oX7X$X$X`.~.......6.a.@. .o.} S S m S S S } [ w.r.i.c.Z.h.h.F.Z.*X>X,XyXpX3Xx.zXGXKXGXKXKXKXKXKXKXKXAXHXKXKXKXKXKXKX",
"5 8 E v 8 ..OX&X%XXXXX`...@...@.a.o.@. .S } X.} | | } o.+.[ { i.c.z.h.c.}.Z.S.2XyX6XiX XO.rXKXAXGXKXKXKXKXKXKXKXKXKXKXKXKXKXKXKX",
"8 B A N E O.$X&XoXXXoXXX@...@.~.@.o. .b } X.X.X.+.X.X.o.+.O.[ x.z.z.N.f.F..X X:X6X4XuXrX] ).FXKXHXKXKXKXKXKXKXKXKXKXKXKXKXKXKXKX",
"8 D C 7  .~.&X%X$X_.XXoXp. .@...o.} F b F M S S S S S F ] O.w.x.c.z.i.d. X X X#XrXyXiXlXtX] dXJXKXKXGXKXKXKXKXKXGXCXnXCXAXHXAXAX",
"N W v * C @.&X^.~.XXoXoX@.F o.@.@.D F S g g = g : g : $ : e w.x.z.z.r.z.@X+X XB..XyX3XkXSXgX).hXKXJXnXbXnXAXDXDXGXNXnXnXCXnXAXAX",
"! c * * - D $X~.^.+.+.oXT. .D o.@.D S S = o o = : $ $ o X e z.@Xz.c.n.{.3X%X#X[.{.3XtXBXMXKX&XT.gXGXGXMXnXnXCXnXJXDXAXAXAXAXAXnX",
"N %   % + 7 ~._.o.= c _.~.@.X.@.o. .N : : d : $ : $ : e e e x.F.z.<.n.[.oXz.a.x.@X#XlXxXVXJXCXhXgXFXKXKXFXAXNXnXnXnXnXnXAXFXAXAX",
"+ * % + - * N @.D c +  .$X@.F  . .o. .m : : m : = $ : m e y @X@XN.c..X[.w.U ] (.B.#XBXBXFXJXnXKXGXJXnXAXJXGXMXnXCXDXGXAXAXJXGXDX",
"o + + ; - & > v o.} S X.~.^.c ! o. .F F N % $ - : * : : e T.@Xx.x.@X@Xz.A ' x.F.N. XBXBXFXJXZXZXHXZXHXKXGXGXAXAXGXDXJXDXNXKXKXGX",
"o + + + % ; 4 7 D ).X.b b ~.p.~  . .F F F g > $ $ : > e ] x.).).[.x.z.[ z.x. Xx.x.i.tXxXFXFXcXHXHXMXAXHXGXKXGXKXJXFXJXJXDXKXKXKX",
"+ $ # + + * - & 7  . . .D D W Z Z F A C N e e e e > e A A ] z.z.z.' U ' z.n.c.c.:.4.B.fXBXJXAXAXKXZXHXCXCXKXGXGXFXFXDXDXAXKXKXKX",
"o O # + # ; ; @   7 D W ! D 6 r 6 > 7 ~ ~ 8 & & & & e U w.<.U p y ' ' z.z.c.4.2.s r.3.M.tXJXCXJXKXKXHXHXAXHXCXnXAXNXbXNXGXKXKXKX",
"o o O # = ; ; % $   2 Z V U U C 6 r r V U ] [ ! ! ] O.w.U p U U U ' 4.4.z.<.:.3.&.3.4.<.OXFXvXGXJXKXJXHXJXKXHXAXDXNXcXNXGXKXKXKX",
"= # # # f # ; & &   . < r V A r 6 r 6 e e 3 y A y H y r y p p R ' <.4.%.' 2.5.4.f.f.0.t.l.kXSXSXDXHXJXJXKXKXHXHXDXSXMXNXKXKXKXKX",
"O # d f f f ; 7 4 @   . 1 1 6 2 r t 6 r r r r 2 2 6 t J L p Y P ' a a R :.3.j.k.V.D.f.h.l.7XBXSXJXJXFXJXKXHXHXHXHXJXJXDXKXKXKXKX",
"f f f d f f # # & 9 9 5 < & & & & 2 2 r r 6 r 6 6 6 3 r u 9 3 w p < t P %.3.f.j.j.V.C.m.B.{.9XBXFXJXNXJXKXKXHXKXJXJXJXJXKXKXGXKX",
"d d d d d d : $ * 5 v v 5 4 4 * X X . X & @ < 1 4 < < 1 @ < @ < , t J R -.9.0.5.5.g.k.G.}.}.<X0XFXJXSXDXKXKXHXHXJXKXKXKXKXKXKXKX",
"l j l l d d d : 4 5 9 9 v v c 4 5 1 & @ . . . . . . @ @ < 4 3 9 p p T ) ;.;.0.0.g.g.k.*X*X=X:X<XjXFXVXVXHXKXHXHXHXJXJXJXKXKXKXKX",
"M l l l h d o > D K v 8 v v v D 9 0 6 5 6 6 2 1 4 5 4 4 9 9 v K L ^ / ;.;.1.q.0.j.j.k.G.G.*X2X,X9XVXJXFXJXKXKXKXKXKXKXGXKXKXKXKX",
"M M M M j d = N E ! Q V v c v Q V V V K t H H u 9 v 9 9 v u u ^ ^ / ;.6.6.q.0.0.g.k.G.k.k.*X5X5X7XzXSXJXHXHXKXHXKXKXJXJXKXKXKXKX",
"P.P.L.z h d > > B Y _ Q E v V Q Q Q J H u H J Y U L V v L L Q ` 6.;.;.6.8.q.g.g.k.k.b.b.G.,X5X5X7XtXSXJXJXHXKXHXKXKXGXJXKXKXKXKX",
"E.R.Y.M j = S 7 6 V Q ....( T ^ ^ ^ T Y J J Y ( ( ^ L L ^ ^ / 6.q.;./ ;.8.0.l.k.k.G.G.b.-X5X5X5X7X9XSXJXKXKXKXKXKXKXJXGXKXKXKXKX",
"I.P.K.x h j D W Z V U _ ..,.' ) ` ^ ) { R R J R T L L L ^ ( ` 6.6.>.;.1.9.l.l.C.G.G.*XJ.,X,X5X5X+X7XVXJXFXJXKXKXKXKXKXJXKXKXKXHX",
"Q.E.Y.Y.k S ! [ Q U K Q ^ / =.) ,.;.' { <.' R ,.R / / ` ( ( ;.,.;.;.9.0.h.l.C.V.*Xb.J.,XJ.,X,XJ.|.qXVXJXGXKXKXKXKXKXKXKXKXKXKXKX",
"Q.I.K.z k E ..p.;.;.L T / R { <.=.,.1.,.1.1.1.1.1.=./ / / ;.1.6.0.0.0.j.k.v.k.k.k.G.-X,X2X-X-X*X{.qXFXJXHXKXKXKXHXKXKXJXJXKXKXHX",
"I.Q.R.Y.z n ..p...;.;./ / =.,.,.,.8.q.1.1.9.1.1.=.;.;.-.=.8.9.8.0.0.l.j.C.v.G.f.b.k.,X6X,X-X].V.M.0XFXVXKXHXHXKXGXKXKXJXKXKXKXKX",
"U.E.Y.z h n ..;.6.6.;.;.' ) ) ,.,.3.r.r.9.1.1.9.1.=.=.=.%.1.u.r.0.0.l.l.].k.b.b.v.b.-X-X*Xk.&.g.c.<XBXVXAXHXKXKXKXKXKXJXKXKXKXKX",
"U.R.R.M h b | ../ E / ;.,.[ ( R ,.,.,.r.9.1.1.1.1.=.=.3.1.1.9.r.0.0.f.j.j.k.k.G.v.b.A.*Xj.-.>.3.n. XxXFXAXHXKXKXKXKXJXJXKXKXHXKX",
"I.I.W.Y.f b b E K H G H U / ( Y R [ ,.<.1.8.3.;.=.=.1.3.>.>.2.<.-.$.*.j.f.5.f.5.j.v.v.m.v.&.i.t.m.<XkXBXJXKXKXGXKXKXKXKXKXKXKXKX",
"!.I.P.l h b c v E K H t 9 H J Y J Y R [ =.) =.;.=.>.2.=.%.=.%.s q #.#.$.5.*.*.2.3.g.j.Z.u.4.3.N.Z.:XjXVXJXKXKXKXKXKXJXJXHXKXKXKX",
"/.W.R.L.z j c v E L ^ ( L u t H G u u L J p i P P R %.=.>.%.I I *.G.k.#.q #.&.2.2.4.m.S.p 3.i.S.Z.=XjXBXVXHXJXKXKXKXFXAXHXKXKXKX",
"!.E.R.L.l h n c E ^ / ^ P L L L Y Y H u G G G w J I P I $.s &.D.wXeXpXeX#.a &.2.2.l.].1.u <.N.[.Z.4XlXxXVXJXJXKXKXKXAXAXHXKXKXHX",
"!.W.R.Y.x k n n E ^ ;.^ G G w L P L / T J G P L P G I $.$.$.*.-X,XyXuXlX6X#.:.:.t.h.].) i 8.{.B.>XuXiXxXJXSXKXKXKXKXKXJXKXKXKXKX",
"sXW.R.Y.z h b n E ^ ;.0.q.q.G , < J / L L u G w w P P w -.%.I j.>X6X6XpXlX5X4.v.S.l.u.P u ,.x.x.A.3XiXzXFXJXKXKXKXKXJXJXKXKXKXKX",
"!.W.E.Y.M h b n n ;.q.l.].u./ 3 9 3 J G G u u G G I $.P R -.s s v.H.4XyXaXlXH.2.h.l.1.G p 8.y.y.A.4XiXrXBXVXGXKXKXKXKXGXKXKXKXKX",
"!.Q.E.P.L.h f b E s.^.].^.g.0.w P R w w P i i G G G w P I -.-.q s v.2XuXuXlXaX2.t.0.T P / 8.<.i.A.0X0X#XVXSXAXKXKXKXKXKXKXKXKXKX",
"/.!.U.Y.K.l k c ..8.y.0.k.2.0.l.R w P a i w q w q P i G I %.&.$.q 4.H.yXuXaXlX,Xm.%.P 8.) ' <.x.A.-X{.qXFXVXbXnXKXKXJXJXKXKXKXKX",
"!.!.E.I.L.z j b v ..u.l.G.*X;X}.Z.2.i p 1.-.-.s q w w $.s s %.%.a ' Z.J.uXuXuXaXZ.i r.`.T U <.e.G.}.[.xXFXNXnXHXKXGXHXJXKXKXKXKX",
"!.!.U.K.L.x h b E ..1.h.*X2X;X1X>X}.}.4.*.l.].^.-.w w $.a a %.%.#.a z.H.4XaXuXaX=X=.N.M.T ) <.<.f.i.M.fXNXhXhXGXAXGXGXGXKXKXGXGX",
"!.Q.I.P.L.x f g D _ 3.r.m.1X1X4X*X*X-X=Xj.g.-X8X0Xl.$.s s $.$.:.2.$.a Z.J.J.6XuXuX>.9.R ) w.8.y.k.Z. X9XJXbXhXCXAXAXHXKXKXKXGXGX"
};
